# xmcd
#
# Track frame offsets: 
#        225
#        12377
#        22461
#        34983
#        44972
#        58113
#        71442
#        83766
#        94407
#        106719
#        119048
#        132086
#        143958
#        155128
#        167809
#        179911
#        191671
#
# Disc length: 2711 seconds
#
# Revision: 2
# Processed by: cddbd v1.5.1PL0 Copyright (c) Steve Scherf et al.
# Submitted via: ExactAudioCopy v0.95a5
#
DISCID=0c0a9411
DTITLE=Various Artist - King Anthology Of Risque Blues [CD2]
DYEAR=2001
DGENRE=Blues
TTITLE0=Hank Ballard and The Midnighters - Annie Had A Baby
TTITLE1=The Drivers  - Smooth, Slow And Easy
TTITLE2=4 Jacks  - Sure Cure For The Blues
TTITLE3=Bull Moose Jackson  - Big Ten Inch Record
TTITLE4=Wynonie Harris  - Keep On Churnin'
TTITLE5=Dorothy Ellis  - Drill, Daddy, Drill
TTITLE6=Roy Brown  - Rockin' At Midnight
TTITLE7=Little Esther  - Turn The Lamps Down Low
TTITLE8=Wynonie Harris  - I Like My Baby's Pudding
TTITLE9=Todd Rhodes and Connie Allen  - Rocket 69
TTITLE10=Pete "Guitar"  Lewis - Chocolate Pork Chop Man
TTITLE11=Lucky Millinder and Myra Johnson  - Silent George
TTITLE12=Wynonie Harris - Wasn't That Good
TTITLE13=Fluffy Hunter  - My Natch'l Man
TTITLE14=Eddie Davis and The Bill Doggett Trio  - Mountain Oysters
TTITLE15=Little Esther  - Saturday Night Daddy
TTITLE16=Wynonie Harris  - Sittin' On It All The Time
EXTD=YEAR: 2001
EXTT0=
EXTT1=
EXTT2=
EXTT3=
EXTT4=
EXTT5=
EXTT6=
EXTT7=
EXTT8=
EXTT9=
EXTT10=
EXTT11=
EXTT12=
EXTT13=
EXTT14=
EXTT15=
EXTT16=
PLAYORDER=
